<svg width="104" height="72" viewBox="0 0 104 72" fill="none" xmlns="http://www.w3.org/2000/svg">
<path d="M0 24.8619C0 9.94475 9.08797 0 22.7199 0C36.3519 0 45.4398 9.94475 45.4398 24.8619H40.391C40.391 12.9282 33.3226 4.87293 22.7199 4.87293C12.1173 4.87293 5.04887 12.9282 5.04887 24.8619V47.2376C5.04887 59.1713 12.1173 67.1271 22.7199 67.1271C27.5668 67.1271 31.505 65.337 34.5343 62.3536L38.3714 66.0332C34.3323 69.8122 29.0815 72 22.7199 72C9.08797 72 0 62.1547 0 47.2376V24.8619V24.8619ZM22.7199 12.3315C20.1955 12.3315 18.1759 13.1271 16.3583 14.6188L12.6222 11.1381C15.4495 8.65193 18.6808 7.45856 22.7199 7.45856C31.8079 7.45856 37.8665 14.4199 37.8665 24.8619H32.8177C32.8177 17.4033 28.7786 12.3315 22.7199 12.3315V12.3315ZM22.7199 59.6685C28.7786 59.6685 32.8177 54.6961 32.8177 47.2376H37.8665C37.8665 57.6796 31.8079 64.5414 22.7199 64.5414C13.632 64.5414 7.57331 57.6796 7.57331 47.2376V24.8619C7.57331 20.0884 8.78504 16.1105 11.1075 13.1271L14.6417 16.6077C13.329 18.895 12.6222 21.5801 12.6222 24.8619V47.2376C12.6222 54.6961 16.6613 59.6685 22.7199 59.6685V59.6685ZM45.4398 47.2376C45.4398 54.0994 43.4203 59.8674 40.088 64.1436L36.3519 60.663C38.8763 57.0829 40.391 52.6077 40.391 47.2376H45.4398V47.2376Z" fill="#F4F4F4"/>
<path d="M79.0585 45.6V62.4V72H62V0H103.428V16.8H79.0585V28.8H98.5538V45.6H79.0585ZM64.4369 2.4V67.7024L69.3108 62.5V36H96.1169V31.2H69.3108V7.2H100.991V2.4H64.4369ZM100.991 9.6H73.4048L78.5711 14.4H100.991V9.6ZM71.7477 28.8H76.6215V16.032L71.7477 11.328V28.8ZM96.1169 38.4H73.4048L78.5711 43.2H96.1169V38.4ZM71.7477 62.4H76.6215V44.832L71.7477 40.128V62.4ZM76.6215 64.8H70.5L66.0874 69.6H76.6215V64.8Z" fill="#F4F4F4"/>
</svg>
